<?xml version="1.0" standalone="no"?>
<!DOCTYPE svg PUBLIC "-//W3C//DTD SVG 20010904//EN"
 "http://www.w3.org/TR/2001/REC-SVG-20010904/DTD/svg10.dtd">
<svg version="1.0" xmlns="http://www.w3.org/2000/svg"
 width="512.000000pt" height="512.000000pt" viewBox="0 0 512.000000 512.000000"
 preserveAspectRatio="xMidYMid meet">
<metadata>
Created by potrace 1.16, written by Peter Selinger 2001-2019
</metadata>
<g transform="translate(0.000000,512.000000) scale(0.100000,-0.100000)"
fill="#000000" stroke="none">
<path d="M2390 5004 c-19 -2 -73 -9 -120 -15 -824 -100 -1564 -625 -1950
-1383 -67 -133 -123 -268 -159 -386 -49 -159 -101 -425 -101 -515 0 -32 -2
-35 -30 -35 l-30 0 0 -175 0 -175 29 0 28 0 7 -82 c18 -209 107 -531 205 -746
252 -550 707 -1016 1228 -1258 43 -20 128 -56 188 -79 100 -39 112 -41 136
-29 51 26 59 63 59 281 l0 198 -177 -3 c-304 -6 -457 35 -578 152 -45 44 -67
79 -124 197 -79 165 -139 252 -213 308 -29 22 -69 53 -89 68 -51 39 -69 75
-69 138 0 65 7 71 105 80 143 14 278 -33 387 -134 33 -30 91 -101 130 -159
135 -197 278 -269 468 -234 87 16 170 51 170 71 0 32 31 135 55 184 14 27 23
53 19 58 -3 5 -20 9 -37 9 -57 0 -283 58 -373 95 -203 84 -363 203 -456 339
-90 131 -161 320 -195 516 -21 123 -24 497 -5 585 34 155 91 286 173 396 l49
66 -16 84 c-24 126 -15 352 20 483 38 147 37 146 152 146 53 0 122 -7 153 -15
117 -30 324 -123 453 -202 l57 -35 108 21 c172 33 294 44 513 44 219 0 341
-11 513 -44 l108 -21 57 34 c160 97 336 177 444 203 79 18 251 20 266 3 16
-20 60 -176 71 -255 16 -102 14 -278 -4 -369 l-15 -77 49 -66 c124 -168 178
-338 188 -586 18 -456 -102 -835 -329 -1040 -102 -93 -275 -190 -423 -239 -88
-28 -254 -66 -297 -66 -39 0 -42 -13 -13 -69 57 -113 58 -129 64 -623 6 -439
7 -458 26 -484 42 -56 49 -56 170 -9 141 54 244 103 348 162 539 308 965 826
1161 1413 50 150 101 382 112 507 l7 83 28 0 29 0 0 175 0 175 -30 0 c-28 0
-30 3 -30 35 0 56 -28 230 -57 350 -63 269 -192 565 -348 800 -413 622 -1031
1017 -1765 1130 -101 15 -427 28 -500 19z"/>
</g>
</svg>
